<svg xmlns="http://www.w3.org/2000/svg" viewBox="0 0 64 64" width="100%" height="100%">
  <!-- Blue Crystal -->
  <g id="crystal">
    <path d="M40 12 L32 40 L24 12 L28 8 L36 8 Z" fill="#00a8ff" />
    <path d="M40 12 L32 40 L44 16 L40 10 Z" fill="#0084ff" />
    <path d="M24 12 L32 40 L20 16 L24 10 Z" fill="#0062ff" />
    <path d="M28 8 L24 12 L24 10 Z" fill="#00c3ff" />
    <path d="M36 8 L40 12 L40 10 Z" fill="#00c3ff" />
    <path d="M28 8 L36 8 L32 6 Z" fill="#00c3ff" />
    <!-- Crystal Outline -->
    <path d="M40 12 L32 40 L24 12 L28 8 L36 8 Z M40 12 L32 40 L44 16 L40 10 Z M24 12 L32 40 L20 16 L24 10 Z" fill="none" stroke="#00e5ff" stroke-width="0.5" />
  </g>
  
  <!-- Gold Star -->
  <path d="M26 14 L27 12 L28 14 L30 15 L28 16 L27 18 L26 16 L24 15 Z" fill="#ffd700" />
  
  <!-- Sparkles -->
  <circle cx="30" cy="11" r="0.5" fill="#00e5ff" />
  <circle cx="34" cy="13" r="0.5" fill="#00e5ff" />
</svg>